<?xml version="1.0" standalone="no"?><svg xmlns="http://www.w3.org/2000/svg" viewBox="0 0 1440 320"><path fill="#6E7C7C" fill-opacity="1" d="M0,160L40,165.3C80,171,160,181,240,202.7C320,224,400,256,480,234.7C560,213,640,139,720,144C800,149,880,235,960,234.7C1040,235,1120,149,1200,128C1280,107,1360,149,1400,170.7L1440,192L1440,320L1400,320C1360,320,1280,320,1200,320C1120,320,1040,320,960,320C880,320,800,320,720,320C640,320,560,320,480,320C400,320,320,320,240,320C160,320,80,320,40,320L0,320Z"></path></svg>